<?xml version="1.0" encoding="UTF-8"?>
<svg id="Layer_1" xmlns="http://www.w3.org/2000/svg" version="1.1" viewBox="0 0 16 16">
  <!-- Generator: Adobe Illustrator 29.5.0, SVG Export Plug-In . SVG Version: 2.1.0 Build 137)  -->
  <path d="M7.2011,1.1242l-.1541.015.1597,1.8985c.0869,1.0442.1849,2.2082.2157,2.5854.0785.9018.3614,4.2916.4035,4.8286.0364.4172.0364.4197-.0224.4097-.4175-.0899-.4903-.0974-.7985-.0849-1.3701.0525-2.9952.9992-3.6144,2.1033-.1709.3073-.2241.4846-.2241.7619,0,.3797.1373.7269.3642.9243.2606.2248.6164.3322,1.1067.3322,1.6167-.0025,3.6228-1.309,3.9786-2.5929.0532-.1849.0504-.3772-.014-1.1491-.0168-.1923-.1121-1.4064-.2101-2.6978-.2326-2.9776-.2606-3.3398-.297-3.792-.0168-.2048-.0224-.3772-.0168-.3847.0308-.025.3362.0724.5716.1824.5744.2723,1.8352,1.0866,2.1686,1.4039.297.2798.4931.637.6052,1.1016.0728.2973.0644.9143-.0168,1.2615-.1653.6994-.4427,1.214-1.0283,1.8935-.1317.1549-.2494.2973-.2578.3147-.0056.0175.0224.0649.0644.1049l.0785.0724.2157-.0999c.2157-.0999.5296-.3297.7313-.5371.7565-.7794,1.1376-1.9809,1.0031-3.1725-.0728-.652-.2662-1.2165-.5828-1.6936-.2185-.3322-.8209-.9742-2.0958-2.2307-1.1179-1.1016-1.3309-1.3314-1.555-1.6662l-.0757-.1149-.2746.005c-.1513.0025-.3446.01-.4287.0175Z"/>
</svg>